<svg width="218" height="53" viewBox="0 0 218 53" fill="none" xmlns="http://www.w3.org/2000/svg">
<g clip-path="url(#clip0_1270:137)">
<path d="M18.0233 0H0V51.6842H11.9431V30.6415H16.0688C19.3392 30.6415 21.5063 31.2846 22.7125 32.8452C23.5085 33.8753 23.8861 35.3049 23.8861 37.2127C23.8861 49.5028 30.5625 50.5366 32.5169 51.6842C35.0472 52.5495 38.1273 52.9999 41.7455 52.9999C53.4714 52.9999 59.5516 48.2746 59.5516 40.005V23.6138H42.8313V30.9973H48.26V40.5218C48.26 44.2137 45.8715 45.5426 42.0712 45.5426C38.2714 45.5426 35.8827 44.2137 35.8827 40.5218V33.8964C35.0944 30.3313 32.8772 27.733 28.3055 26.433C32.6774 25.0374 35.1429 22.4452 35.8827 18.6152V12.7994C35.6241 1.85266 26.7595 0 18.0233 0V0ZM39.3132 7.84475C40.1163 7.62124 41.0418 7.51791 42.0712 7.51791C45.8715 7.51791 48.26 8.92065 48.26 12.6125V18.1502H59.5516V13.1294C59.5516 4.85977 53.4714 0.134423 41.7455 0.134423C39.1841 0.134423 36.892 0.360569 34.8741 0.799419C36.7508 2.88086 38.2799 5.28096 39.3132 7.84475ZM17.6973 7.38376C21.9319 7.38376 23.7773 9.0079 23.7773 12.6998V17.7941C23.7773 21.9291 21.0633 23.258 16.6118 23.258H11.9431V7.38376H17.6973Z" fill="#223644"/>
<path d="M162.396 34.7788L163.798 44.0747H160.995L162.396 34.7788ZM164.67 31.5226H160.413L157.452 49.9039H160.122L160.625 46.5692H164.194L164.697 49.9039H167.631L164.67 31.5226ZM152.534 34.1483C153.459 34.1483 153.961 34.569 153.961 35.8818V38.6391C153.961 39.9519 153.459 40.3721 152.534 40.3721H151.159V34.1483H152.534ZM152.534 31.5226H148.25V49.9039H151.159V42.9975H152.534C155.442 42.9975 156.87 41.396 156.87 38.4551V36.0655C156.87 33.1243 155.442 31.5226 152.534 31.5226ZM137.541 45.4925C137.541 48.4335 139.101 50.1143 141.957 50.1143C144.813 50.1143 146.373 48.4335 146.373 45.4925V35.9343C146.373 32.9933 144.813 31.3125 141.957 31.3125C139.101 31.3125 137.541 32.9933 137.541 35.9343V45.4925ZM140.45 35.7503C140.45 34.4374 141.031 33.9385 141.957 33.9385C142.883 33.9385 143.464 34.4374 143.464 35.7503V45.6765C143.464 46.9893 142.883 47.4883 141.957 47.4883C141.031 47.4883 140.45 46.9893 140.45 45.6765V35.7503ZM127.494 31.5226H123.448V49.9039H125.987V36.9058L128.155 49.9039H130.904L132.914 36.7221V49.9039H135.664V31.5226H131.619L129.635 44.5734L127.494 31.5226ZM116.891 34.7788L118.292 44.0747H115.489L116.891 34.7788ZM119.164 31.5226H114.907L111.946 49.9039H114.616L115.119 46.5692H118.688L119.191 49.9039H122.126L119.164 31.5226ZM107.028 34.1483C107.953 34.1483 108.456 34.569 108.456 35.8818V38.6391C108.456 39.9519 107.953 40.3721 107.028 40.3721H105.653V34.1483H107.028ZM107.028 31.5226H102.744V49.9039H105.653V42.9975H107.028C109.937 42.9975 111.364 41.396 111.364 38.4551V36.0655C111.364 33.1243 109.937 31.5226 107.028 31.5226ZM92.4587 31.5226H88.4128V49.9039H90.9515V36.9058L93.1195 49.9039H95.8693L97.8791 36.7221V49.9039H100.629V31.5226H96.5837L94.6003 44.5734L92.4587 31.5226ZM78.4711 41.4748L79.661 36.9582V49.9039H82.2785V31.5226H79.0791L76.6996 39.1114L75.6417 43.1551V31.5226H73.0508V49.9039H76.0383L78.4711 41.4748Z" fill="#223644"/>
<path d="M212.766 6.35262L214.167 15.6486H211.364L212.766 6.35262ZM215.04 3.09644H210.783L207.821 21.4778H210.492L210.994 18.1428H214.564L215.066 21.4778H218.001L215.04 3.09644ZM198.328 5.72216H201.369V21.4778H204.278V5.72216H207.319V3.09644H198.328V5.72216ZM193.304 13.0487L194.494 8.53185V21.4778H197.112V3.09644H193.912L191.533 10.6852L190.475 14.729V3.09644H187.884V21.4778H190.871L193.304 13.0487ZM179.502 13.6001H182.807V21.4778H185.769V3.09644H182.807V10.9741H179.502V3.09644H176.593V21.4778H179.502V13.6001ZM170.009 6.35262L171.411 15.6486H168.608L170.009 6.35262ZM172.283 3.09644H168.026L165.064 21.4778H167.735L168.238 18.1428H171.807L172.31 21.4778H175.244L172.283 3.09644ZM160.147 5.72216C161.072 5.72216 161.574 6.14282 161.574 7.45568V10.2129C161.574 11.5255 161.072 11.9459 160.147 11.9459H158.772V5.72216H160.147ZM160.147 3.09644H155.863V21.4778H158.772V14.5714H160.147C163.055 14.5714 164.483 12.9699 164.483 10.0287V7.63913C164.483 4.69817 163.055 3.09644 160.147 3.09644ZM149.147 21.4778V5.72216H153.906V3.09644H146.238V21.4778H149.147Z" fill="#223644"/>
<path d="M133.496 5.72204V11.3678H132.359C131.275 11.3678 130.614 10.8952 130.614 9.42472V7.61292C130.614 6.29979 131.064 5.72204 132.095 5.72204H133.496ZM130.323 21.4777C130.482 21.0048 130.588 20.7162 130.588 19.2197V16.3309C130.588 14.624 131.17 13.9935 132.492 13.9935H133.496V21.4777H136.404V3.09632H132.016C129.001 3.09632 127.705 4.48772 127.705 7.32378V8.7679C127.705 10.6588 128.314 11.8931 129.609 12.4967C128.155 13.1011 127.679 14.4927 127.679 16.4097V19.2455C127.679 20.1385 127.653 20.795 127.362 21.4777H130.323ZM122.021 13.0486L123.21 8.53174V21.4777H125.828V3.09632H122.629L120.249 10.6849L119.191 14.7289V3.09632H116.6V21.4777H119.588L122.021 13.0486ZM108.298 5.72204H110.756V18.9044H106.948C107.424 18.4577 107.689 17.8538 107.768 16.4624L108.298 5.72204ZM114.987 23.9461V18.9044H113.718V3.09632H105.574L104.913 16.5146C104.86 17.5913 104.701 18.2742 104.199 18.9044H103.062V23.9461H105.891V21.4777H112.104V23.9461H114.987ZM102.48 3.09632H99.4392L98.1173 9.39837L97.4297 13.6788L96.5308 9.37227L94.9445 3.09632H92.0624L96.0814 17.2761L96.0548 17.4337C95.8168 18.7729 94.9706 19.0357 93.4903 18.9305V21.5038C97.5354 21.7663 98.6726 20.1118 99.3602 16.8032L102.48 3.09632ZM82.6488 5.72204H85.6899V21.4777H88.5983V5.72204H91.6394V3.09632H82.6488V5.72204ZM78.9739 14.624V17.25C78.9739 18.5628 78.392 19.0357 77.4667 19.0357C76.5409 19.0357 75.9595 18.5628 75.9595 17.25V7.32378C75.9595 6.01092 76.5409 5.51197 77.4667 5.51197C78.392 5.51197 78.9739 6.01092 78.9739 7.32378V9.2932H81.7235V7.50775C81.7235 4.5668 80.2429 2.88599 77.3871 2.88599C74.5316 2.88599 73.0508 4.5668 73.0508 7.50775V17.0663C73.0508 20.0069 74.5316 21.6878 77.3871 21.6878C80.2429 21.6878 81.7235 20.0069 81.7235 17.0663V14.624H78.9739Z" fill="#223644"/>
</g>
<defs>
<clipPath id="clip0_1270:137">
<rect width="218" height="53" fill="white"/>
</clipPath>
</defs>
</svg>
